<?xml version="1.0" encoding="UTF-8" standalone="no"?>
<svg viewBox="0 0 126 89" version="1.1" id="Nesxtep" xmlns="http://www.w3.org/2000/svg">
  <defs>
    <linearGradient id="degradadoLinea" x1="0%" y1="0%" x2="100%" y2="0%">
      <stop offset="0%" style="stop-color:rgb(0,0,255);stop-opacity:1" />
      <stop offset="50%" style="stop-color:rgb(0,255,0);stop-opacity:1" />
      <stop offset="100%" style="stop-color:rgb(255,0,0);stop-opacity:1" />
    </linearGradient>
  </defs>
  <style type="text/css">
    .cod-t-1 {
      --t-1-color-1: #178879;
      --t-1-color-2: #4d8515;
      --t-1-color-3: #9e7210;

      --t-1-color-1-darker: #015250;
      --t-1-color-2-darker: #3E6A11;
      --t-1-color-3-darker: #7E5B0D;

      --t-1-color-1-darkest: #012e38;
      --t-1-color-2-darkest: #2E4F0D;
      --t-1-color-3-darkest: #5F440A;
    }

    #Uno>.Sombra,
    #Tres>.Escalon {
      fill: var(--t-1-color-1-darker);
    }

    #Uno>.Escalon,
    #Dos>.Escalon,
    #Tres>.Frente {
      fill: var(--t-1-color-1-darkest);
    }

    #Tres>.Sombra,
    #Dos>.Sombra,
    .tep-text {
      fill: var(--t-1-color-1);
    }

    #Cinco>.Escalon {
      fill: var(--t-1-color-2-darker);
    }

    #Cuatro>.Escalon,
    .Derecha>.Inferior,
    .Derecha>.Superior {
      fill: var(--t-1-color-2-darkest);
    }

    #Cinco>.Sombra,
    #Cuatro>.Sombra,
    .Izquierda {
      fill: var(--t-1-color-2);
    }

    #Siete>.Escalon {
      fill: var(--t-1-color-3-darker);
    }

    #Seis>.Escalon {
      fill: var(--t-1-color-3-darkest);
    }

    #Siete>.Sombra,
    #Seis>.Sombra,
    .nes-text {
      fill: var(--t-1-color-3);
    }

    .nes-text {
      font-family: sans-serif;
      font-weight: bolder;
      font-size: 20px;
    }

    .tep-text {
      font-family: 'Arial Rounded MT Bold';
      font-weight: bolder;
      font-size: 20px;
    }
  </style>

  <g id="Escalera" class="cod-t-1">
    <g id="Siete" transform="matrix(0.14,0,0,0.14,80,1)">
      <path d="m 87,0 c -1,2 -2,8 -2,10 -3,23 -5,46 -6,69 -26,3 -53,4 -79,5 -1,-8 -2,-47 1,-53 49,-25 74,-34 87,-30 z"
        class="Escalon" />
      <path
        d="M 76,13 c 26,5 66,12 90,18 29,5 66,14 75,19 3,10 0,25 -3,35 -7,11 -17,17 -30,17 -6,1 -31,-1 -37,-2 C 83,84 39,84 0,79 1,61 4,40 5,22 c 0,-5 1,-13 2,-17 1,-2 0,-4 2,-5 27,5 40,7 67,13 z"
        class="Sombra" transform="matrix(1,0,0,1,78,0)" />
    </g>
    <g id="Seis" transform="matrix(0.14,0,0,0.14,67,14)">
      <path
        d="m 183,0 c 4,4 10,26 12,52 0,7 -2,12 -6,19 -12,6 -49,0 -93,4 -32,2 -65,3 -96,0 0,0 -10,-33 0,-60 0,-13 170,-15 183,-14 z"
        class="Escalon" />
      <path
        d="m 88,10 c 6,1 23,1 29,3 7,1 7,2 8,6 2,11 1,30 -1,42 -3,7 -9,11 -18,12 -31,1 -69,1 -100,-3 1,-2 6,-6 6,-19 -5,-27 -7,-43 -12,-51 25,2 58,3 87,11 z"
        class="Sombra" transform="matrix(1,0,0,1,182,1)" />
    </g>
    <g id="Cinco" transform="matrix(0.14,0,0,0.14,51,27)">
      <path
        d="m 110,1 c 53,0 148,-1 187,0 2,0 3,0 4,2 -3,0 -6,6 -7,8 -23,8 -36,17 -57,26 -24,8 -30,9 -42,14 0,0 -6,3 -8,8 -2,-1 -51,-1 -67,1 -57,3 -89,4 -118,2 -3,-5 -2,-53 1,-59 5,-3 63,-2 107,-2 z"
        class="Escalon" />
      <path
        d="m 110,8 c 2,0 -6,0 6,-8 1,8 0,0 0,30 -1,7 -1,22 -2,30 -26,1 -35,2 -50,0 -3,0 -61,0 -64,-2 1,-1 2,-4 9,-8 2,-2 18,-9 42,-18 10,-1 0,-10 60,-28 z"
        class="Sombra" transform="matrix(1,0,0,1,185,1)" />
    </g>
    <g id="Cuatro" transform="matrix(0.14,0,0,0.14,35,38)">
      <path
        d="m 3,1 c 14,-4 130,0 148,0 32,2 145,-5 151,3 -25,9 -87,34 -108,42 -13,7 -16,8 -24,13 -26,3 -68,2 -68,2 l -56,0 -44,0 c 0,0 -5,-51 0,-60 z"
        class="Escalon" />
      <path
        d="m 134,44 c -1.23584,6.73353 -4.4928,9.68485 -9.06517,12.88877 -48.37981,1.67508 -84.35768,0.42911 -124.95732,-1.64944 27.04073,-16.24997 22.95574,-12.72243 53.35734,-24.90001 20.63209,-8.74221 28.62974,-12.23862 78.68325,-30.04499 4.04831,12.30322 3.32404,27.8354 1.9819,43.70567 z"
        class="Sombra" transform="matrix(1,0,0,1,169.7,3.7)" />
    </g>
    <g id="Tres" transform="matrix(0.14,0,0,0.14,18,51)">
      <path
        d="m 71,1 c 0,4 1,17 -1,24 -2,15 3,25 5,36 h -12 c -28,-1 -44,3 -61,0 -2,-18 -2,-38 1,-57 10,-6 26,-3 68,-3 z"
        class="Frente" transform="matrix(1,0,0,1,0,3)" />
      <path
        d="m 117,62 c -11,-1 -36,0 -47,-0 -28,1 -36,2 -64,2 -4,-16 -7,-20 -5,-36 2,-9 2,-16 1,-24 14,-1 117,-4 126,-4 l 117,1 c -8,5 -26,10 -49,22 -27,10 -26,12 -58,22 -12,9 -12,9 -21,17 z"
        class="Escalon" transform="matrix(1,0,0,1,67,0)" />
      <path
        d="m 130,1 c 6,-0 7,1 8,3 1,18 2,54 -2,55 -9,6 -85,2 -135,2 7,-5 14,-14 22,-17 12,-5 45,-18 58,-22 8,-6 30,-16 49,-22 z"
        class="Sombra" transform="matrix(1,0,0,1,182,1)" />
    </g>
    <g id="Dos" transform="matrix(0.14,0,0,0.14,2,64)">
      <path
        d="m 116,54 c -1,4 -2,5 -10,5 -39,1 -97,4 -106,0 3,-7 47,-26 67,-34 8,-6 32,-20 47,-26 1,0 2,0 2,1 4,8 1,27 -1,54 z"
        class="Sombra" transform="matrix(1,0,0,1,221,1)" />
      <path
        d="m 336,0 c -20,9 -28,15 -47,26 -30,14 -52,20 -68,34 -53,4 -97,5 -128,5 -31,2 -59,1 -93,2 -0,-19 0,-39 1,-58 0,-1 1,-2 3,-3 32,-1 68,-1 100,-1 55,-1 216,-9 232,-5 z"
        class="Escalon" />
    </g>
    <g id="Uno" transform="matrix(0.14,0,0,0.14,2,78)">
      <path
        d="m 258,0 c -19,10 -26,21 -57,35 -24,11 -38,15 -72,23 -30,2 -77,3 -104,-4 -15,-3 -22,-15 -24,-26 2,4 -2,6 1,-19 78,1 1,1 92,-2 21,0 50,-5 98,-5 2,0 56,-2 66,-2 z"
        class="Escalon" />
      <path
        d="m 67,33 c -31,1 -31,1 -67,-1 19,-5 22,-5 39,-13 18,-8 19,-13 30,-18 3,0 2,0 2,0 0,0 0,24 0,30 0,2 -2,2 -4,2 z"
        class="Sombra" transform="matrix(1.8,0,0,1.8,130,-1)" />
    </g>
  </g>
  <g id="Texto" class="cod-t-1" transform="translate(58,23)">
    <g id="nesx-text" transform="translate(0,50)">
      <text x="0" y="15" class="nes-text">
        NES
      </text>
      <g id="X-final" transform="translate(41,2)">
        <g id="x" transform="rotate(-45 0 0) scale(0.14)">
          <path
            d="m 69,58 c -2.26,4.30 -38.15,59.99 -41.65,60.09 -6.16,4.08 -21.55,0.62 -27.34,-0.46 15.66,-21.00 36.02,-51.83 40.82,-55.89 -11.23,-16.30 -30.03,-49.77 -40.31,-60.03 7.65,-1.16 21.12,-1.61 28.81,-0.78 13.55,17.38 24.74,33.23 39.67,57.07 z"
            class="Izquierda" />
          <g class="Derecha" transform="matrix(1,0,0,1,60,0)">
            <path
              d="m 16,52 c -0.67,0.75 -1.5,1.09 -2.5,1 -4.06,-6.81 -8.83,-14.51 -13.62,-20.62 2.36,-4.03 11.81,-14.34 23.62,-31.38 9.98,-1.17 19.98,-1.33 30,-0.5 -4.89,7.98 -36.29,49.41 -37.5,51.5 z"
              class="Superior" />
            <path
              d="m 16,1 c 16,23 28,38 38,54 -9,1 -19,1 -28,0 -11,-12 -14,-19 -26,-35 4,-7 10,-12 14,-19 1,-1 1,-1 2,0 z"
              class="Inferior" transform="matrix(1,0,0,1,0,62)" />
          </g>
        </g>
      </g>
    </g>
    <g id="tep-text-final" transform="translate(64 39)">
      <text x="0" y="0" class="tep-text" transform="rotate(-90 0 0)">
        TEP
      </text>
    </g>
  </g>
</svg>