<?xml version="1.0" encoding="UTF-8" standalone="no"?>
<svg viewBox="0 0 128 90" version="1.1" id="Nesxtep" xmlns="http://www.w3.org/2000/svg">
  <style type="text/css">
    .cod-t-1 {
      --t-1-color-1: #178879;
      --t-1-color-2: #4d8515;
      --t-1-color-3: #9e7210;

      --t-1-color-1-darker: #015250;
      --t-1-color-2-darker: #3E6A11;
      --t-1-color-3-darker: #7E5B0D;

      --t-1-color-1-darkest: #012e38;
      --t-1-color-2-darkest: #2E4F0D;
      --t-1-color-3-darkest: #5F440A;
    }

    #Uno>.Sombra,
    #Tres>.Escalon {
      fill: var(--t-1-color-1-darker);
    }

    #Uno>.Escalon,
    #Dos>.Escalon,
    #Tres>.Frente {
      fill: var(--t-1-color-1-darkest);
    }

    #Tres>.Sombra,
    #Dos>.Sombra,
    .tep-text {
      fill: var(--t-1-color-1);
    }

    #Cinco>.Escalon {
      fill: var(--t-1-color-2-darker);
    }

    #Cuatro>.Escalon,
    .Derecha>.Inferior,
    .Derecha>.Superior {
      fill: var(--t-1-color-2-darkest);
    }

    #Cinco>.Sombra,
    #Cuatro>.Sombra,
    .Izquierda {
      fill: var(--t-1-color-2);
    }

    #Siete>.Escalon {
      fill: var(--t-1-color-3-darker);
    }

    #Seis>.Escalon {
      fill: var(--t-1-color-3-darkest);
    }

    #Siete>.Sombra,
    #Seis>.Sombra,
    .nes-text {
      fill: var(--t-1-color-3);
    }

    .nes-text {
      font-family: sans-serif;
      font-weight: bolder;
      font-size: 20px;
    }

    .tep-text {
      font-family: 'Arial Rounded MT Bold';
      font-weight: bolder;
      font-size: 20px;
    }
  </style>

  <g id="Escalera" class="cod-t-1">
    <g id="Siete" transform="matrix(0.14,0,0,0.14,80,1)">
      <path d="M 87,0 C 86,2 83,19 83,21 80,45 80,56 79,79 53,82 26,83 0,84 -1,76 -2,37 1,31 50,6 75,0 84,0 Z"
        class="Escalon" />
      <path
        d="M 154,13 C 180,18 220,25 244,31 273,36 310,45 319,50 322,60 319,75 316,85 309,96 299,102 286,102 280,103 255,101 249,100 161,84 118,84 79,79 80,56 80,45 83,21 83,19 86,2 87,0 114,5 127,7 154,13 Z"
        class="Sombra" />
    </g>
    <g id="Seis" transform="matrix(0.14,0,0,0.14,67,14)">
      <path
        d="M 183,0 C 187,4 193,26 195,52 195,59 193,64 189,71 177,77 140,71 96,75 64,77 31,78 0,75 0,75 -10,70 0,15 0,2 170,0 183,1 Z"
        class="Escalon" />
      <path
        d="M 270,11 C 276,12 293,12 299,14 306,15 306,16 307,20 309,31 308,50 306,62 303,69 297,73 288,74 140,71 177,77 188,71 193,64 195,59 195,52 193,26 187,4 183,0 207,3 240,4 269,12 Z"
        class="Sombra" />
    </g>
    <g id="Cinco" transform="matrix(0.14,0,0,0.14,51,27)">
      <path
        d="M 110,1 C 163,1 251,-1 290,0 292,0 301,-3 301,1 293,3 279,12 276,15 259,19 249,32 239,33 216,42 199,48 194,51 194,51 187,54 185,59 183,58 136,58 120,60 63,63 31,64 2,62 -1,57 0,9 3,3 8,0 66,1 110,1 Z"
        class="Escalon" />
      <path
        d="M 301,1 C 302,9 301,1 301,31 300,38 300,53 299,61 273,62 264,63 249,61 246,61 188,61 185,59 187,54 194,51 194,51 199,48 216,42 239,33 249,32 259,19 276,15 279,12 293,3 301,1 Z"
        class="Sombra" />
    </g>
    <g id="Cuatro" transform="matrix(0.14,0,0,0.14,35,38)">
      <path
        d="M 3,1 C 17,-3 133,1 151,1 183,3 296,-4 302,4 277,13 215,38 194,46 181,53 178,54 170,60 144,62 112,58 102,61 67,59 37,58 2,61 2,61 -3,33 -1,19 Z"
        class="Escalon" />
      <path
        d="M 304,48 C 303,55 300,58 295,61 247,63 200,62 170,60 178,54 181,53 194,46 215,38 277,13 302,4 306,17 305,32 304,48 Z"
        class="Sombra" />
    </g>
    <g id="Tres" transform="matrix(0.14,0,0,0.14,18,51)">
      <path d="M 68,28 C 66,43 69,48 73,64 35,63 17,67 0,64 -2,46 -2,26 1,7 11,1 27,4 69,4 70,12 70,18 68,28 Z"
        class="Frente" />
      <path
        d="M 184,62 C 173,61 148,62 137,62 17,67 35,63 73,64 69,48 66,43 68,28 70,18 70,12 69,4 150,2 231,0 312,1 293,5 273,16 264,23 250,28 220,40 206,45 200,50 191,56 184,62 Z"
        class="Escalon" />
      <path
        d="M 321,6 C 322,23 323,59 319,60 310,66 173,61 184,62 191,56 200,50 206,45 220,40 250,28 264,23 273,16 293,5 312,1 319,2 319,2 321,6 Z"
        class="Sombra" />
    </g>
    <g id="Dos" transform="matrix(0.14,0,0,0.14,2,64)">
      <path
        d="M 336,0 C 316,9 308,15 289,26 259,40 237,46 221,60 168,64 124,65 93,65 62,67 34,66 0,67 0,48 0,29 1,10 1,8 2,7 4,6 36,5 72,5 104,5 159,4 306,-5 336,0 Z"
        class="Escalon" />
      <path
        d="M 337,55 C 336,59 335,60 327,60 288,61 230,64 221,60 237,46 259,40 289,26 308,15 316,9 336,0 337,0 338,1 338,2 342,10 337,55 337,55 Z"
        class="Sombra" />
    </g>
    <g id="Uno" transform="matrix(0.14,0,0,0.14,2,78)">
      <path
        d="M 258,0 C 239,10 232,21 201,35 177,46 163,50 130,60 99,60 52,61 25,54 10,51 4,44 1,30 0,24 0,19 2,9 80,10 20,12 94,7 115,7 144,2 192,2 194,2 248,0 258,0 Z"
        class="Escalon" />
      <path
        d="M 252,60 C 210,62 181,61 130,60 163,50 177,46 201,35 231,21 239,10 258,0 262,0 259,38 259,56 259,60 255,60 252,60 Z"
        class="Sombra" />
    </g>
  </g>
  <g id="Texto" class="cod-t-1" transform="translate(58,23)">
    <g id="nesx-text" transform="translate(0,50)">
      <text x="0" y="15" class="nes-text">
        NES
      </text>
      <g id="X-final" transform="translate(41,2)">
        <g id="x" transform="rotate(-45 0 0) scale(0.14)">
          <path
            d="M 69,58 C 67,62 31,118 27,118 21,122 6,119 0,118 16,97 36,66 41,62 30,45 11,12 1,2 8,1 22,0 29,1 43,18 54,34 69,58 Z"
            class="Izquierda" />
          <g class="Derecha" transform="matrix(1,0,0,1,60,0)">
            <path d="M 16,52 C 15,53 15,53 14,53 9,46 5,38 0,32 2,28 12,18 24,1 33,0 43,0 54,1 49,8 17,50 16,52 Z"
              class="Superior" />
            <path
              d="M 16,63 C 32,86 44,101 54,117 45,118 35,118 26,117 15,105 12,98 0,82 4,75 10,70 14,63 15,62 15,62 16,63 Z"
              class="Inferior" />
          </g>
        </g>
      </g>
    </g>
    <g id="tep-text-final" transform="translate(64 39)">
      <text x="0" y="0" class="tep-text" transform="rotate(-90 0 0)">
        TEP
      </text>
    </g>
  </g>
</svg>